<svg width="43" height="43" viewBox="0 0 43 43" fill="none" xmlns="http://www.w3.org/2000/svg">
<g filter="url(#filter0_d)">
<path d="M42.2441 23.2829L33.9297 34.1902C33.4258 34.6657 32.8169 34.9034 32.103 34.9034C31.3892 34.9034 30.7803 34.6587 30.2764 34.1693C29.7725 33.6798 29.5205 33.0785 29.5205 32.3654C29.5205 31.6522 29.7725 31.0439 30.2764 30.5405L37.2051 21.479L30.2764 12.4176C29.7725 11.9141 29.5205 11.3128 29.5205 10.6137C29.5205 9.91447 29.7725 9.31317 30.2764 8.80976C30.7803 8.30634 31.3892 8.05463 32.103 8.05463C32.8169 8.05463 33.4258 8.30634 33.9297 8.80976L42.2441 19.6751C42.748 20.1785 43 20.7798 43 21.479C43 22.1782 42.748 22.7795 42.2441 23.2829ZM21.5 40.3151C21.472 40.399 21.43 40.5598 21.374 40.7976C21.318 41.0353 21.276 41.1961 21.248 41.28L21.1011 41.7205L20.8911 42.161L20.5762 42.4966L20.1353 42.7902L19.5684 42.9371L18.8125 43C18.1406 43 17.4967 42.6504 16.8809 41.9512C16.265 41.252 16.041 40.5808 16.209 39.9376L21.5 2.68488C21.9759 0.894959 23.3197 0 25.5312 0C26.1471 0 26.5601 0.328618 26.77 0.985854C26.98 1.64309 26.987 2.33528 26.791 3.06244L21.5 40.3151ZM12.7236 34.1693C12.2197 34.6587 11.6108 34.9034 10.897 34.9034C10.1831 34.9034 9.57422 34.6657 9.07031 34.1902L0.755859 23.2829C0.251953 22.7795 0 22.1782 0 21.479C0 20.7798 0.251953 20.1785 0.755859 19.6751L9.07031 8.80976C9.57422 8.30634 10.1831 8.05463 10.897 8.05463C11.6108 8.05463 12.2197 8.30634 12.7236 8.80976C13.2275 9.31317 13.4795 9.91447 13.4795 10.6137C13.4795 11.3128 13.2275 11.9141 12.7236 12.4176L5.79492 21.479L12.7236 30.5405C13.2275 31.0439 13.4795 31.6522 13.4795 32.3654C13.4795 33.0785 13.2275 33.6798 12.7236 34.1693Z" fill="#272727"/>
<path d="M41.8908 22.9292L41.8669 22.953L41.8465 22.9798L33.558 33.8531C33.1559 34.2204 32.6799 34.4034 32.103 34.4034C31.5169 34.4034 31.0336 34.2078 30.6247 33.8106C30.2194 33.4169 30.0205 32.9457 30.0205 32.3654C30.0205 31.7847 30.2198 31.3037 30.6297 30.8942L30.6533 30.8707L30.6736 30.8442L37.6023 21.7827L37.8345 21.479L37.6023 21.1753L30.6736 12.1139L30.6533 12.0874L30.6297 12.0638C30.2177 11.6522 30.0205 11.1774 30.0205 10.6137C30.0205 10.0499 30.2177 9.57509 30.6297 9.16348C31.0397 8.75396 31.5214 8.55463 32.103 8.55463C32.6741 8.55463 33.1487 8.74674 33.5537 9.14121L41.8471 19.979L41.8673 20.0054L41.8908 20.0288C42.3028 20.4405 42.5 20.9153 42.5 21.479C42.5 22.0428 42.3028 22.5176 41.8908 22.9292ZM16.6928 40.0639L16.7 40.0362L16.704 40.0079L21.9907 2.78544C22.204 2.0046 22.5929 1.45305 23.1419 1.08737C23.7065 0.711354 24.4887 0.5 25.5312 0.5C25.7458 0.5 25.8878 0.555192 25.9915 0.637692C26.1 0.724022 26.2097 0.875045 26.2937 1.13801C26.4718 1.6954 26.4816 2.28911 26.3082 2.93233L26.3003 2.96186L26.296 2.99213L21.0108 40.2037C20.977 40.3145 20.9355 40.4786 20.8873 40.6829C20.8308 40.923 20.7935 41.0625 20.7738 41.1217L20.6365 41.5331L20.4733 41.8756L20.251 42.1124L19.9283 42.3274L19.4843 42.4423L18.7933 42.4999C18.3195 42.4934 17.8077 42.247 17.2561 41.6207C16.7022 40.9919 16.5823 40.487 16.6928 40.0639ZM1.1535 22.9798L1.13308 22.953L1.10924 22.9292C0.697235 22.5176 0.5 22.0428 0.5 21.479C0.5 20.9153 0.697235 20.4405 1.10924 20.0288L1.13275 20.0054L1.15294 19.979L9.44628 9.14121C9.85128 8.74673 10.3259 8.55463 10.897 8.55463C11.4786 8.55463 11.9603 8.75396 12.3703 9.16348C12.7823 9.57509 12.9795 10.0499 12.9795 10.6137C12.9795 11.1774 12.7823 11.6522 12.3703 12.0638L12.3467 12.0874L12.3264 12.1139L5.39773 21.1753L5.1655 21.479L5.39773 21.7827L12.3264 30.8442L12.3467 30.8707L12.3703 30.8942C12.7802 31.3037 12.9795 31.7847 12.9795 32.3654C12.9795 32.9457 12.7806 33.4169 12.3753 33.8106C11.9664 34.2078 11.4831 34.4034 10.897 34.4034C10.3201 34.4034 9.84407 34.2204 9.44201 33.8531L1.1535 22.9798Z" stroke="black"/>
</g>
<defs>
<filter id="filter0_d" x="-4" y="0" width="51" height="51" filterUnits="userSpaceOnUse" color-interpolation-filters="sRGB">
<feFlood flood-opacity="0" result="BackgroundImageFix"/>
<feColorMatrix in="SourceAlpha" type="matrix" values="0 0 0 0 0 0 0 0 0 0 0 0 0 0 0 0 0 0 127 0"/>
<feOffset dy="4"/>
<feGaussianBlur stdDeviation="2"/>
<feColorMatrix type="matrix" values="0 0 0 0 0 0 0 0 0 0 0 0 0 0 0 0 0 0 0.25 0"/>
<feBlend mode="normal" in2="BackgroundImageFix" result="effect1_dropShadow"/>
<feBlend mode="normal" in="SourceGraphic" in2="effect1_dropShadow" result="shape"/>
</filter>
</defs>
</svg>
